<svg width="925" height="544" viewBox="0 0 925 544" fill="none" xmlns="http://www.w3.org/2000/svg">
<rect x="695" y="81" width="230" height="100" fill="#0066FF"/>
<rect x="338" y="80" width="230" height="100" fill="#E96969"/>
<path d="M785.587 141V123.227H791.812C793.969 123.227 795.605 123.642 796.72 124.472C797.835 125.294 798.392 126.502 798.392 128.097C798.392 128.968 798.168 129.737 797.721 130.404C797.273 131.063 796.651 131.548 795.853 131.857C796.764 132.085 797.481 132.545 798.001 133.236C798.53 133.928 798.795 134.774 798.795 135.775C798.795 137.484 798.25 138.778 797.159 139.657C796.069 140.536 794.514 140.984 792.496 141H785.587ZM789.249 133.261V138.058H792.386C793.249 138.058 793.92 137.855 794.4 137.448C794.889 137.033 795.133 136.463 795.133 135.739C795.133 134.111 794.291 133.285 792.606 133.261H789.249ZM789.249 130.673H791.959C793.806 130.64 794.73 129.904 794.73 128.463C794.73 127.658 794.494 127.08 794.022 126.73C793.558 126.372 792.822 126.193 791.812 126.193H789.249V130.673ZM805.045 141H801.505V122.25H805.045V141ZM815.873 139.657C815.002 140.715 813.797 141.244 812.259 141.244C810.843 141.244 809.761 140.837 809.012 140.023C808.272 139.21 807.893 138.017 807.877 136.447V127.792H811.405V136.325C811.405 137.7 812.031 138.388 813.285 138.388C814.481 138.388 815.303 137.973 815.75 137.143V127.792H819.291V141H815.97L815.873 139.657ZM828.031 141.244C826.094 141.244 824.515 140.65 823.294 139.462C822.082 138.274 821.476 136.691 821.476 134.713V134.372C821.476 133.045 821.732 131.861 822.245 130.819C822.757 129.77 823.482 128.964 824.417 128.402C825.361 127.833 826.436 127.548 827.64 127.548C829.447 127.548 830.867 128.118 831.9 129.257C832.942 130.396 833.463 132.012 833.463 134.103V135.543H825.052C825.166 136.406 825.508 137.098 826.078 137.619C826.655 138.139 827.384 138.4 828.263 138.4C829.622 138.4 830.684 137.908 831.449 136.923L833.182 138.864C832.653 139.612 831.937 140.198 831.034 140.622C830.13 141.037 829.129 141.244 828.031 141.244ZM827.628 130.404C826.928 130.404 826.358 130.64 825.919 131.112C825.488 131.584 825.211 132.26 825.089 133.139H829.996V132.858C829.98 132.077 829.768 131.474 829.361 131.051C828.954 130.62 828.377 130.404 827.628 130.404Z" fill="white"/>
<path d="M429.026 126V108.227H435.251C437.408 108.227 439.044 108.642 440.159 109.472C441.274 110.294 441.831 111.502 441.831 113.097C441.831 113.968 441.607 114.737 441.16 115.404C440.712 116.063 440.09 116.548 439.292 116.857C440.203 117.085 440.92 117.545 441.44 118.236C441.969 118.928 442.234 119.774 442.234 120.775C442.234 122.484 441.689 123.778 440.598 124.657C439.508 125.536 437.953 125.984 435.935 126H429.026ZM432.688 118.261V123.058H435.825C436.688 123.058 437.359 122.855 437.839 122.448C438.328 122.033 438.572 121.463 438.572 120.739C438.572 119.111 437.729 118.285 436.045 118.261H432.688ZM432.688 115.673H435.398C437.245 115.64 438.169 114.904 438.169 113.463C438.169 112.658 437.933 112.08 437.461 111.73C436.997 111.372 436.261 111.193 435.251 111.193H432.688V115.673ZM448.484 126H444.944V107.25H448.484V126ZM459.312 124.657C458.441 125.715 457.236 126.244 455.698 126.244C454.282 126.244 453.2 125.837 452.451 125.023C451.711 124.21 451.332 123.017 451.316 121.447V112.792H454.844V121.325C454.844 122.7 455.47 123.388 456.724 123.388C457.92 123.388 458.742 122.973 459.189 122.143V112.792H462.729V126H459.409L459.312 124.657ZM471.47 126.244C469.533 126.244 467.954 125.65 466.733 124.462C465.521 123.274 464.915 121.691 464.915 119.713V119.372C464.915 118.045 465.171 116.861 465.684 115.819C466.196 114.77 466.921 113.964 467.856 113.402C468.8 112.833 469.875 112.548 471.079 112.548C472.886 112.548 474.306 113.118 475.339 114.257C476.381 115.396 476.902 117.012 476.902 119.103V120.543H468.491C468.605 121.406 468.947 122.098 469.517 122.619C470.094 123.139 470.823 123.4 471.702 123.4C473.061 123.4 474.123 122.908 474.888 121.923L476.621 123.864C476.092 124.612 475.376 125.198 474.473 125.622C473.569 126.037 472.568 126.244 471.47 126.244ZM471.067 115.404C470.367 115.404 469.797 115.64 469.358 116.112C468.927 116.584 468.65 117.26 468.528 118.139H473.435V117.858C473.419 117.077 473.207 116.474 472.8 116.051C472.393 115.62 471.816 115.404 471.067 115.404ZM421.25 150.337C421.25 149.645 421.006 149.116 420.518 148.75C420.029 148.376 419.15 147.985 417.881 147.578C416.611 147.163 415.606 146.756 414.866 146.357C412.847 145.267 411.838 143.798 411.838 141.951C411.838 140.99 412.107 140.136 412.644 139.387C413.189 138.63 413.966 138.04 414.976 137.617C415.993 137.194 417.132 136.982 418.394 136.982C419.663 136.982 420.794 137.214 421.787 137.678C422.78 138.134 423.549 138.781 424.094 139.619C424.648 140.457 424.924 141.41 424.924 142.476H421.262C421.262 141.662 421.006 141.031 420.493 140.583C419.98 140.128 419.26 139.9 418.333 139.9C417.437 139.9 416.742 140.091 416.245 140.474C415.749 140.848 415.5 141.344 415.5 141.963C415.5 142.541 415.789 143.025 416.367 143.416C416.953 143.806 417.812 144.172 418.943 144.514C421.026 145.141 422.544 145.918 423.496 146.846C424.448 147.773 424.924 148.929 424.924 150.312C424.924 151.851 424.342 153.059 423.179 153.938C422.015 154.809 420.448 155.244 418.479 155.244C417.112 155.244 415.867 154.996 414.744 154.5C413.621 153.995 412.762 153.307 412.168 152.437C411.582 151.566 411.289 150.557 411.289 149.409H414.963C414.963 151.37 416.135 152.351 418.479 152.351C419.35 152.351 420.029 152.176 420.518 151.826C421.006 151.468 421.25 150.972 421.25 150.337ZM433.262 155.244C431.325 155.244 429.746 154.65 428.525 153.462C427.313 152.274 426.707 150.691 426.707 148.713V148.372C426.707 147.045 426.963 145.861 427.476 144.819C427.988 143.77 428.713 142.964 429.648 142.402C430.592 141.833 431.667 141.548 432.871 141.548C434.678 141.548 436.098 142.118 437.131 143.257C438.173 144.396 438.694 146.012 438.694 148.103V149.543H430.283C430.397 150.406 430.739 151.098 431.309 151.619C431.886 152.139 432.615 152.4 433.494 152.4C434.853 152.4 435.915 151.908 436.68 150.923L438.413 152.864C437.884 153.612 437.168 154.198 436.265 154.622C435.361 155.037 434.36 155.244 433.262 155.244ZM432.859 144.404C432.159 144.404 431.589 144.64 431.15 145.112C430.719 145.584 430.442 146.26 430.32 147.139H435.227V146.858C435.211 146.077 434.999 145.474 434.592 145.051C434.185 144.62 433.608 144.404 432.859 144.404ZM448.13 145.1C447.65 145.035 447.227 145.002 446.86 145.002C445.526 145.002 444.651 145.454 444.236 146.357V155H440.708V141.792H444.041L444.138 143.367C444.846 142.154 445.827 141.548 447.08 141.548C447.471 141.548 447.837 141.601 448.179 141.707L448.13 145.1ZM455.002 150.691L457.456 141.792H461.143L456.687 155H453.318L448.862 141.792H452.549L455.002 150.691ZM466.428 155H462.888V141.792H466.428V155ZM462.681 138.374C462.681 137.845 462.856 137.41 463.206 137.068C463.564 136.726 464.048 136.555 464.658 136.555C465.26 136.555 465.741 136.726 466.099 137.068C466.457 137.41 466.636 137.845 466.636 138.374C466.636 138.911 466.453 139.351 466.086 139.692C465.728 140.034 465.252 140.205 464.658 140.205C464.064 140.205 463.584 140.034 463.218 139.692C462.86 139.351 462.681 138.911 462.681 138.374ZM474.839 152.4C475.49 152.4 476.019 152.221 476.426 151.863C476.833 151.505 477.044 151.029 477.061 150.435H480.369C480.361 151.33 480.116 152.152 479.636 152.9C479.156 153.641 478.497 154.219 477.659 154.634C476.829 155.041 475.909 155.244 474.9 155.244C473.012 155.244 471.523 154.646 470.432 153.45C469.342 152.245 468.796 150.585 468.796 148.469V148.237C468.796 146.203 469.338 144.579 470.42 143.367C471.502 142.154 472.987 141.548 474.875 141.548C476.528 141.548 477.85 142.02 478.843 142.964C479.844 143.9 480.352 145.149 480.369 146.711H477.061C477.044 146.028 476.833 145.474 476.426 145.051C476.019 144.62 475.482 144.404 474.814 144.404C473.993 144.404 473.37 144.705 472.947 145.308C472.532 145.902 472.324 146.87 472.324 148.213V148.579C472.324 149.938 472.532 150.915 472.947 151.509C473.362 152.103 473.993 152.4 474.839 152.4ZM488.462 155.244C486.525 155.244 484.946 154.65 483.726 153.462C482.513 152.274 481.907 150.691 481.907 148.713V148.372C481.907 147.045 482.163 145.861 482.676 144.819C483.188 143.77 483.913 142.964 484.849 142.402C485.793 141.833 486.867 141.548 488.071 141.548C489.878 141.548 491.298 142.118 492.332 143.257C493.373 144.396 493.894 146.012 493.894 148.103V149.543H485.483C485.597 150.406 485.939 151.098 486.509 151.619C487.087 152.139 487.815 152.4 488.694 152.4C490.053 152.4 491.115 151.908 491.88 150.923L493.613 152.864C493.084 153.612 492.368 154.198 491.465 154.622C490.562 155.037 489.561 155.244 488.462 155.244ZM488.059 144.404C487.359 144.404 486.79 144.64 486.35 145.112C485.919 145.584 485.642 146.26 485.52 147.139H490.427V146.858C490.411 146.077 490.199 145.474 489.792 145.051C489.386 144.62 488.808 144.404 488.059 144.404Z" fill="white"/>
<path d="M322.706 134.828C323.715 133.886 323.77 132.304 322.828 131.294L307.475 114.845C306.533 113.836 304.951 113.782 303.942 114.724C302.933 115.666 302.878 117.248 303.82 118.257L317.467 132.878L302.845 146.525C301.836 147.467 301.782 149.049 302.724 150.058C303.666 151.067 305.248 151.122 306.257 150.18L322.706 134.828ZM233.914 132.499L320.914 135.499L321.086 130.501L234.086 127.501L233.914 132.499Z" fill="black"/>
<path d="M676.706 133.828C677.715 132.886 677.77 131.304 676.828 130.294L661.475 113.845C660.533 112.836 658.951 112.782 657.942 113.724C656.933 114.666 656.878 116.248 657.82 117.257L671.467 131.878L656.845 145.525C655.836 146.467 655.782 148.049 656.724 149.058C657.666 150.067 659.248 150.122 660.257 149.18L676.706 133.828ZM587.914 131.499L674.914 134.499L675.086 129.501L588.086 126.501L587.914 131.499Z" fill="black"/>
<path d="M85.3333 114.773H79.1467C70.704 114.468 62.2888 115.901 54.4232 118.984C46.5575 122.067 39.4093 126.733 33.4222 132.693L31.7156 134.684V193.564H60.7289V160.142L64.64 155.733L66.4178 153.671C75.6759 144.16 87.202 137.161 99.9111 133.333C93.5481 128.491 88.5297 122.102 85.3333 114.773V114.773Z" fill="#2396ED"/>
<path d="M222.862 132.48C216.875 126.519 209.727 121.853 201.861 118.771C193.996 115.688 185.58 114.255 177.138 114.56C174.548 114.567 171.961 114.71 169.387 114.986C166.13 121.862 161.249 127.842 155.164 132.409C168.732 136.162 181.023 143.537 190.72 153.742L192.498 155.733L196.338 160.142V193.635H224.356V134.471L222.862 132.48Z" fill="#2396ED"/>
<path d="M78.9333 100.907H81.1378C80.1135 92.1122 81.6567 83.209 85.581 75.272C89.5053 67.335 95.6431 60.7035 103.253 56.178C100.495 51.9636 96.6888 48.5379 92.2084 46.2363C87.728 43.9347 82.7266 42.8362 77.6941 43.0483C72.6616 43.2603 67.7704 44.7758 63.4995 47.4461C59.2286 50.1165 55.7245 53.8503 53.3302 58.2818C50.9359 62.7134 49.7335 67.6908 49.8408 72.7267C49.9482 77.7625 51.3615 82.6842 53.9424 87.0097C56.5234 91.3352 60.1834 94.9163 64.5642 97.4023C68.945 99.8882 73.8963 101.194 78.9333 101.191V100.907Z" fill="#2396ED"/>
<path d="M173.724 95.5734C173.811 97.2078 173.811 98.8457 173.724 100.48C175.089 100.696 176.467 100.815 177.849 100.836H179.2C184.215 100.568 189.075 99.0069 193.307 96.3036C197.54 93.6003 201 89.8472 203.351 85.4096C205.702 80.9721 206.865 76.0013 206.725 70.9813C206.584 65.9613 205.147 61.063 202.552 56.7635C199.957 52.464 196.293 48.9096 191.916 46.4465C187.54 43.9834 182.6 42.6955 177.578 42.7081C172.556 42.7207 167.623 44.0335 163.259 46.5186C158.895 49.0037 155.249 52.5764 152.676 56.889C159.112 61.0912 164.404 66.8254 168.078 73.5771C171.752 80.3289 173.692 87.887 173.724 95.5734V95.5734Z" fill="#2396ED"/>
<path d="M127.076 127.431C144.631 127.431 158.862 113.2 158.862 95.6446C158.862 78.0893 144.631 63.8579 127.076 63.8579C109.52 63.8579 95.2889 78.0893 95.2889 95.6446C95.2889 113.2 109.52 127.431 127.076 127.431Z" fill="#2396ED"/>
<path d="M128.782 144.356C119.495 143.981 110.229 145.488 101.54 148.788C92.8509 152.088 84.9193 157.111 78.2222 163.556L76.4444 165.547V210.56C76.4722 212.026 76.7885 213.473 77.3754 214.817C77.9622 216.161 78.8081 217.376 79.8647 218.393C80.9213 219.41 82.1679 220.209 83.5332 220.744C84.8986 221.279 86.356 221.54 87.8222 221.511H169.529C170.995 221.54 172.453 221.279 173.818 220.744C175.183 220.209 176.43 219.41 177.486 218.393C178.543 217.376 179.389 216.161 179.976 214.817C180.563 213.473 180.879 212.026 180.907 210.56V165.689L179.2 163.556C172.546 157.091 164.642 152.054 155.973 148.752C147.303 145.451 138.051 143.955 128.782 144.356V144.356Z" fill="#2396ED"/>
<rect x="695" y="369" width="230" height="100" fill="#1CC500"/>
<rect x="338" y="368" width="230" height="100" fill="#E96969"/>
<path d="M799.649 426.754C798.99 427.543 798.058 428.158 796.854 428.597C795.65 429.028 794.315 429.244 792.85 429.244C791.312 429.244 789.961 428.91 788.797 428.243C787.642 427.568 786.747 426.591 786.112 425.313C785.485 424.036 785.164 422.534 785.147 420.809V419.601C785.147 417.826 785.444 416.292 786.039 414.999C786.641 413.696 787.503 412.704 788.626 412.02C789.758 411.328 791.08 410.982 792.594 410.982C794.701 410.982 796.349 411.487 797.538 412.496C798.726 413.497 799.43 414.958 799.649 416.878H796.085C795.922 415.861 795.56 415.117 794.999 414.645C794.445 414.173 793.68 413.937 792.704 413.937C791.458 413.937 790.51 414.404 789.859 415.34C789.208 416.276 788.879 417.668 788.871 419.515V420.65C788.871 422.514 789.225 423.922 789.933 424.874C790.641 425.826 791.678 426.302 793.045 426.302C794.421 426.302 795.401 426.009 795.987 425.423V422.359H792.655V419.662H799.649V426.754ZM809.818 419.1C809.338 419.035 808.915 419.002 808.548 419.002C807.214 419.002 806.339 419.454 805.924 420.357V429H802.396V415.792H805.729L805.826 417.367C806.534 416.154 807.515 415.548 808.768 415.548C809.159 415.548 809.525 415.601 809.867 415.707L809.818 419.1ZM817.362 429.244C815.425 429.244 813.846 428.65 812.625 427.462C811.413 426.274 810.807 424.691 810.807 422.713V422.372C810.807 421.045 811.063 419.861 811.576 418.819C812.088 417.77 812.813 416.964 813.749 416.402C814.693 415.833 815.767 415.548 816.971 415.548C818.778 415.548 820.198 416.118 821.231 417.257C822.273 418.396 822.794 420.012 822.794 422.103V423.543H814.383C814.497 424.406 814.839 425.098 815.409 425.619C815.986 426.139 816.715 426.4 817.594 426.4C818.953 426.4 820.015 425.908 820.78 424.923L822.513 426.864C821.984 427.612 821.268 428.198 820.365 428.622C819.461 429.037 818.46 429.244 817.362 429.244ZM816.959 418.404C816.259 418.404 815.689 418.64 815.25 419.112C814.819 419.584 814.542 420.26 814.42 421.139H819.327V420.858C819.311 420.077 819.099 419.474 818.692 419.051C818.285 418.62 817.708 418.404 816.959 418.404ZM830.887 429.244C828.95 429.244 827.372 428.65 826.151 427.462C824.938 426.274 824.332 424.691 824.332 422.713V422.372C824.332 421.045 824.588 419.861 825.101 418.819C825.614 417.77 826.338 416.964 827.274 416.402C828.218 415.833 829.292 415.548 830.497 415.548C832.303 415.548 833.723 416.118 834.757 417.257C835.799 418.396 836.319 420.012 836.319 422.103V423.543H827.909C828.023 424.406 828.364 425.098 828.934 425.619C829.512 426.139 830.24 426.4 831.119 426.4C832.478 426.4 833.54 425.908 834.305 424.923L836.039 426.864C835.51 427.612 834.793 428.198 833.89 428.622C832.987 429.037 831.986 429.244 830.887 429.244ZM830.484 418.404C829.785 418.404 829.215 418.64 828.775 419.112C828.344 419.584 828.067 420.26 827.945 421.139H832.853V420.858C832.836 420.077 832.625 419.474 832.218 419.051C831.811 418.62 831.233 418.404 830.484 418.404ZM841.581 415.792L841.69 417.318C842.634 416.138 843.9 415.548 845.487 415.548C846.887 415.548 847.928 415.959 848.612 416.781C849.295 417.603 849.645 418.832 849.662 420.467V429H846.134V420.553C846.134 419.804 845.971 419.263 845.646 418.929C845.32 418.587 844.779 418.417 844.022 418.417C843.029 418.417 842.285 418.84 841.788 419.686V429H838.26V415.792H841.581Z" fill="white"/>
<path d="M434.653 411.754C433.994 412.543 433.062 413.158 431.858 413.597C430.653 414.028 429.319 414.244 427.854 414.244C426.316 414.244 424.965 413.91 423.801 413.243C422.646 412.568 421.75 411.591 421.116 410.313C420.489 409.036 420.168 407.534 420.151 405.809V404.601C420.151 402.826 420.448 401.292 421.042 399.999C421.645 398.696 422.507 397.704 423.63 397.02C424.762 396.328 426.084 395.982 427.598 395.982C429.705 395.982 431.353 396.487 432.542 397.496C433.73 398.497 434.434 399.958 434.653 401.878H431.089C430.926 400.861 430.564 400.117 430.002 399.645C429.449 399.173 428.684 398.937 427.708 398.937C426.462 398.937 425.514 399.404 424.863 400.34C424.212 401.276 423.883 402.668 423.875 404.515V405.65C423.875 407.514 424.229 408.922 424.937 409.874C425.645 410.826 426.682 411.302 428.049 411.302C429.425 411.302 430.405 411.009 430.991 410.423V407.359H427.659V404.662H434.653V411.754ZM444.822 404.1C444.342 404.035 443.918 404.002 443.552 404.002C442.218 404.002 441.343 404.454 440.928 405.357V414H437.4V400.792H440.732L440.83 402.367C441.538 401.154 442.519 400.548 443.772 400.548C444.163 400.548 444.529 400.601 444.871 400.707L444.822 404.1ZM452.366 414.244C450.429 414.244 448.85 413.65 447.629 412.462C446.417 411.274 445.811 409.691 445.811 407.713V407.372C445.811 406.045 446.067 404.861 446.58 403.819C447.092 402.77 447.817 401.964 448.752 401.402C449.696 400.833 450.771 400.548 451.975 400.548C453.782 400.548 455.202 401.118 456.235 402.257C457.277 403.396 457.798 405.012 457.798 407.103V408.543H449.387C449.501 409.406 449.843 410.098 450.413 410.619C450.99 411.139 451.719 411.4 452.598 411.4C453.957 411.4 455.019 410.908 455.784 409.923L457.517 411.864C456.988 412.612 456.272 413.198 455.369 413.622C454.465 414.037 453.464 414.244 452.366 414.244ZM451.963 403.404C451.263 403.404 450.693 403.64 450.254 404.112C449.823 404.584 449.546 405.26 449.424 406.139H454.331V405.858C454.315 405.077 454.103 404.474 453.696 404.051C453.289 403.62 452.712 403.404 451.963 403.404ZM465.891 414.244C463.954 414.244 462.375 413.65 461.155 412.462C459.942 411.274 459.336 409.691 459.336 407.713V407.372C459.336 406.045 459.592 404.861 460.105 403.819C460.618 402.77 461.342 401.964 462.278 401.402C463.222 400.833 464.296 400.548 465.5 400.548C467.307 400.548 468.727 401.118 469.761 402.257C470.802 403.396 471.323 405.012 471.323 407.103V408.543H462.913C463.027 409.406 463.368 410.098 463.938 410.619C464.516 411.139 465.244 411.4 466.123 411.4C467.482 411.4 468.544 410.908 469.309 409.923L471.042 411.864C470.514 412.612 469.797 413.198 468.894 413.622C467.991 414.037 466.99 414.244 465.891 414.244ZM465.488 403.404C464.788 403.404 464.219 403.64 463.779 404.112C463.348 404.584 463.071 405.26 462.949 406.139H467.856V405.858C467.84 405.077 467.629 404.474 467.222 404.051C466.815 403.62 466.237 403.404 465.488 403.404ZM476.584 400.792L476.694 402.318C477.638 401.138 478.904 400.548 480.491 400.548C481.89 400.548 482.932 400.959 483.616 401.781C484.299 402.603 484.649 403.832 484.666 405.467V414H481.138V405.553C481.138 404.804 480.975 404.263 480.649 403.929C480.324 403.587 479.783 403.417 479.026 403.417C478.033 403.417 477.288 403.84 476.792 404.686V414H473.264V400.792H476.584ZM421.25 438.337C421.25 437.645 421.006 437.116 420.518 436.75C420.029 436.376 419.15 435.985 417.881 435.578C416.611 435.163 415.606 434.756 414.866 434.357C412.847 433.267 411.838 431.798 411.838 429.951C411.838 428.99 412.107 428.136 412.644 427.387C413.189 426.63 413.966 426.04 414.976 425.617C415.993 425.194 417.132 424.982 418.394 424.982C419.663 424.982 420.794 425.214 421.787 425.678C422.78 426.134 423.549 426.781 424.094 427.619C424.648 428.457 424.924 429.41 424.924 430.476H421.262C421.262 429.662 421.006 429.031 420.493 428.583C419.98 428.128 419.26 427.9 418.333 427.9C417.437 427.9 416.742 428.091 416.245 428.474C415.749 428.848 415.5 429.344 415.5 429.963C415.5 430.541 415.789 431.025 416.367 431.416C416.953 431.806 417.812 432.172 418.943 432.514C421.026 433.141 422.544 433.918 423.496 434.846C424.448 435.773 424.924 436.929 424.924 438.312C424.924 439.851 424.342 441.059 423.179 441.938C422.015 442.809 420.448 443.244 418.479 443.244C417.112 443.244 415.867 442.996 414.744 442.5C413.621 441.995 412.762 441.307 412.168 440.437C411.582 439.566 411.289 438.557 411.289 437.409H414.963C414.963 439.37 416.135 440.351 418.479 440.351C419.35 440.351 420.029 440.176 420.518 439.826C421.006 439.468 421.25 438.972 421.25 438.337ZM433.262 443.244C431.325 443.244 429.746 442.65 428.525 441.462C427.313 440.274 426.707 438.691 426.707 436.713V436.372C426.707 435.045 426.963 433.861 427.476 432.819C427.988 431.77 428.713 430.964 429.648 430.402C430.592 429.833 431.667 429.548 432.871 429.548C434.678 429.548 436.098 430.118 437.131 431.257C438.173 432.396 438.694 434.012 438.694 436.103V437.543H430.283C430.397 438.406 430.739 439.098 431.309 439.619C431.886 440.139 432.615 440.4 433.494 440.4C434.853 440.4 435.915 439.908 436.68 438.923L438.413 440.864C437.884 441.612 437.168 442.198 436.265 442.622C435.361 443.037 434.36 443.244 433.262 443.244ZM432.859 432.404C432.159 432.404 431.589 432.64 431.15 433.112C430.719 433.584 430.442 434.26 430.32 435.139H435.227V434.858C435.211 434.077 434.999 433.474 434.592 433.051C434.185 432.62 433.608 432.404 432.859 432.404ZM448.13 433.1C447.65 433.035 447.227 433.002 446.86 433.002C445.526 433.002 444.651 433.454 444.236 434.357V443H440.708V429.792H444.041L444.138 431.367C444.846 430.154 445.827 429.548 447.08 429.548C447.471 429.548 447.837 429.601 448.179 429.707L448.13 433.1ZM455.002 438.691L457.456 429.792H461.143L456.687 443H453.318L448.862 429.792H452.549L455.002 438.691ZM466.428 443H462.888V429.792H466.428V443ZM462.681 426.374C462.681 425.845 462.856 425.41 463.206 425.068C463.564 424.726 464.048 424.555 464.658 424.555C465.26 424.555 465.741 424.726 466.099 425.068C466.457 425.41 466.636 425.845 466.636 426.374C466.636 426.911 466.453 427.351 466.086 427.692C465.728 428.034 465.252 428.205 464.658 428.205C464.064 428.205 463.584 428.034 463.218 427.692C462.86 427.351 462.681 426.911 462.681 426.374ZM474.839 440.4C475.49 440.4 476.019 440.221 476.426 439.863C476.833 439.505 477.044 439.029 477.061 438.435H480.369C480.361 439.33 480.116 440.152 479.636 440.9C479.156 441.641 478.497 442.219 477.659 442.634C476.829 443.041 475.909 443.244 474.9 443.244C473.012 443.244 471.523 442.646 470.432 441.45C469.342 440.245 468.796 438.585 468.796 436.469V436.237C468.796 434.203 469.338 432.579 470.42 431.367C471.502 430.154 472.987 429.548 474.875 429.548C476.528 429.548 477.85 430.02 478.843 430.964C479.844 431.9 480.352 433.149 480.369 434.711H477.061C477.044 434.028 476.833 433.474 476.426 433.051C476.019 432.62 475.482 432.404 474.814 432.404C473.993 432.404 473.37 432.705 472.947 433.308C472.532 433.902 472.324 434.87 472.324 436.213V436.579C472.324 437.938 472.532 438.915 472.947 439.509C473.362 440.103 473.993 440.4 474.839 440.4ZM488.462 443.244C486.525 443.244 484.946 442.65 483.726 441.462C482.513 440.274 481.907 438.691 481.907 436.713V436.372C481.907 435.045 482.163 433.861 482.676 432.819C483.188 431.77 483.913 430.964 484.849 430.402C485.793 429.833 486.867 429.548 488.071 429.548C489.878 429.548 491.298 430.118 492.332 431.257C493.373 432.396 493.894 434.012 493.894 436.103V437.543H485.483C485.597 438.406 485.939 439.098 486.509 439.619C487.087 440.139 487.815 440.4 488.694 440.4C490.053 440.4 491.115 439.908 491.88 438.923L493.613 440.864C493.084 441.612 492.368 442.198 491.465 442.622C490.562 443.037 489.561 443.244 488.462 443.244ZM488.059 432.404C487.359 432.404 486.79 432.64 486.35 433.112C485.919 433.584 485.642 434.26 485.52 435.139H490.427V434.858C490.411 434.077 490.199 433.474 489.792 433.051C489.386 432.62 488.808 432.404 488.059 432.404Z" fill="white"/>
<path d="M322.706 422.828C323.715 421.886 323.77 420.304 322.828 419.294L307.475 402.845C306.533 401.836 304.951 401.782 303.942 402.724C302.933 403.666 302.878 405.248 303.82 406.257L317.467 420.878L302.845 434.525C301.836 435.467 301.782 437.049 302.724 438.058C303.666 439.067 305.248 439.122 306.257 438.18L322.706 422.828ZM233.914 420.499L320.914 423.499L321.086 418.501L234.086 415.501L233.914 420.499Z" fill="black"/>
<path d="M676.706 421.828C677.715 420.886 677.77 419.304 676.828 418.294L661.475 401.845C660.533 400.836 658.951 400.782 657.942 401.724C656.933 402.666 656.878 404.248 657.82 405.257L671.467 419.878L656.845 433.525C655.836 434.467 655.782 436.049 656.724 437.058C657.666 438.067 659.248 438.122 660.257 437.18L676.706 421.828ZM587.914 419.499L674.914 422.499L675.086 417.501L588.086 414.501L587.914 419.499Z" fill="black"/>
<path d="M85.3333 402.773H79.1467C70.704 402.468 62.2888 403.901 54.4232 406.984C46.5575 410.067 39.4093 414.733 33.4222 420.693L31.7156 422.684V481.564H60.7289V448.142L64.64 443.733L66.4178 441.671C75.6759 432.16 87.202 425.161 99.9111 421.333C93.5481 416.491 88.5297 410.102 85.3333 402.773V402.773Z" fill="#1CC500"/>
<path d="M222.862 420.48C216.875 414.519 209.727 409.853 201.861 406.771C193.996 403.688 185.58 402.255 177.138 402.56C174.548 402.567 171.961 402.71 169.387 402.986C166.13 409.862 161.249 415.842 155.164 420.409C168.732 424.162 181.023 431.537 190.72 441.742L192.498 443.733L196.338 448.142V481.635H224.356V422.471L222.862 420.48Z" fill="#1CC500"/>
<path d="M78.9333 388.907H81.1378C80.1135 380.112 81.6567 371.209 85.581 363.272C89.5053 355.335 95.6431 348.704 103.253 344.178C100.495 339.964 96.6888 336.538 92.2084 334.236C87.728 331.935 82.7266 330.836 77.6941 331.048C72.6616 331.26 67.7704 332.776 63.4995 335.446C59.2286 338.117 55.7245 341.85 53.3302 346.282C50.9359 350.713 49.7335 355.691 49.8408 360.727C49.9482 365.763 51.3615 370.684 53.9424 375.01C56.5234 379.335 60.1834 382.916 64.5642 385.402C68.945 387.888 73.8963 389.194 78.9333 389.191V388.907Z" fill="#1CC500"/>
<path d="M173.724 383.573C173.811 385.208 173.811 386.846 173.724 388.48C175.089 388.696 176.467 388.815 177.849 388.836H179.2C184.215 388.568 189.075 387.007 193.307 384.304C197.54 381.6 201 377.847 203.351 373.41C205.702 368.972 206.865 364.001 206.725 358.981C206.584 353.961 205.147 349.063 202.552 344.763C199.957 340.464 196.293 336.91 191.916 334.447C187.54 331.983 182.6 330.695 177.578 330.708C172.556 330.721 167.623 332.034 163.259 334.519C158.895 337.004 155.249 340.576 152.676 344.889C159.112 349.091 164.404 354.825 168.078 361.577C171.752 368.329 173.692 375.887 173.724 383.573V383.573Z" fill="#1CC500"/>
<path d="M127.076 415.431C144.631 415.431 158.862 401.2 158.862 383.645C158.862 366.089 144.631 351.858 127.076 351.858C109.52 351.858 95.2889 366.089 95.2889 383.645C95.2889 401.2 109.52 415.431 127.076 415.431Z" fill="#1CC500"/>
<path d="M128.782 432.356C119.495 431.981 110.229 433.488 101.54 436.788C92.8509 440.088 84.9193 445.111 78.2222 451.556L76.4444 453.547V498.56C76.4722 500.026 76.7885 501.473 77.3754 502.817C77.9622 504.161 78.8081 505.376 79.8647 506.393C80.9213 507.41 82.1679 508.209 83.5332 508.744C84.8986 509.279 86.356 509.54 87.8222 509.511H169.529C170.995 509.54 172.453 509.279 173.818 508.744C175.183 508.209 176.43 507.41 177.486 506.393C178.543 505.376 179.389 504.161 179.976 502.817C180.563 501.473 180.879 500.026 180.907 498.56V453.689L179.2 451.556C172.546 445.091 164.642 440.054 155.973 436.752C147.303 433.451 138.051 431.955 128.782 432.356V432.356Z" fill="#1CC500"/>
</svg>
