<svg width="959" height="384" viewBox="0 0 959 384" fill="none" xmlns="http://www.w3.org/2000/svg">
<rect x="719" width="240" height="168" fill="#A4FB96"/>
<rect x="724" y="58" width="230" height="100" fill="#7367FF"/>
<rect x="338" y="155" width="230" height="100" fill="#E96969"/>
<path d="M815.299 31.4854V39H810.904V17.6719H819.225C820.826 17.6719 822.232 17.9648 823.443 18.5508C824.664 19.1367 825.602 19.9717 826.256 21.0557C826.91 22.1299 827.237 23.3555 827.237 24.7324C827.237 26.8223 826.52 28.4727 825.084 29.6836C823.658 30.8848 821.681 31.4854 819.151 31.4854H815.299ZM815.299 27.9258H819.225C820.387 27.9258 821.271 27.6523 821.876 27.1055C822.491 26.5586 822.799 25.7773 822.799 24.7617C822.799 23.7168 822.491 22.8721 821.876 22.2275C821.261 21.583 820.411 21.251 819.327 21.2314H815.299V27.9258ZM829.127 30.9287C829.127 29.3564 829.43 27.9551 830.035 26.7246C830.641 25.4941 831.51 24.542 832.643 23.8682C833.785 23.1943 835.108 22.8574 836.612 22.8574C838.751 22.8574 840.494 23.5117 841.842 24.8203C843.199 26.1289 843.956 27.9062 844.112 30.1523L844.142 31.2363C844.142 33.668 843.463 35.6211 842.105 37.0957C840.748 38.5605 838.927 39.293 836.642 39.293C834.356 39.293 832.53 38.5605 831.163 37.0957C829.806 35.6309 829.127 33.6387 829.127 31.1191V30.9287ZM833.36 31.2363C833.36 32.7402 833.644 33.8926 834.21 34.6934C834.776 35.4844 835.587 35.8799 836.642 35.8799C837.667 35.8799 838.468 35.4893 839.044 34.708C839.62 33.917 839.908 32.6572 839.908 30.9287C839.908 29.4541 839.62 28.3115 839.044 27.501C838.468 26.6904 837.657 26.2852 836.612 26.2852C835.577 26.2852 834.776 26.6904 834.21 27.501C833.644 28.3018 833.36 29.5469 833.36 31.2363ZM846.09 30.958C846.09 28.4873 846.642 26.5195 847.745 25.0547C848.858 23.5898 850.377 22.8574 852.301 22.8574C853.844 22.8574 855.118 23.4336 856.124 24.5859V16.5H860.372V39H856.549L856.344 37.3154C855.289 38.6338 853.932 39.293 852.271 39.293C850.406 39.293 848.907 38.5605 847.774 37.0957C846.651 35.6211 846.09 33.5752 846.09 30.958ZM850.323 31.2656C850.323 32.75 850.582 33.8877 851.1 34.6787C851.617 35.4697 852.369 35.8652 853.355 35.8652C854.664 35.8652 855.587 35.3135 856.124 34.21V27.9551C855.597 26.8516 854.684 26.2998 853.385 26.2998C851.344 26.2998 850.323 27.9551 850.323 31.2656Z" fill="black"/>
<path d="M814.54 109.08C814.401 110.992 813.693 112.498 812.416 113.596C811.146 114.695 809.47 115.244 807.386 115.244C805.108 115.244 803.313 114.479 802.003 112.949C800.701 111.411 800.05 109.303 800.05 106.626V105.54C800.05 103.831 800.351 102.325 800.953 101.023C801.555 99.7209 802.414 98.724 803.529 98.0322C804.652 97.3324 805.954 96.9824 807.435 96.9824C809.486 96.9824 811.138 97.5317 812.391 98.6304C813.644 99.729 814.369 101.271 814.564 103.257H810.902C810.812 102.109 810.491 101.279 809.938 100.767C809.392 100.246 808.558 99.9854 807.435 99.9854C806.214 99.9854 805.299 100.425 804.688 101.304C804.086 102.174 803.777 103.529 803.761 105.369V106.711C803.761 108.632 804.05 110.036 804.627 110.923C805.213 111.81 806.133 112.253 807.386 112.253C808.517 112.253 809.36 111.997 809.913 111.484C810.475 110.964 810.796 110.162 810.877 109.08H814.54ZM824.366 115C824.203 114.683 824.085 114.288 824.012 113.816C823.158 114.768 822.047 115.244 820.68 115.244C819.386 115.244 818.312 114.87 817.457 114.121C816.611 113.372 816.188 112.428 816.188 111.289C816.188 109.889 816.704 108.815 817.738 108.066C818.779 107.318 820.281 106.939 822.242 106.931H823.866V106.174C823.866 105.564 823.707 105.076 823.39 104.709C823.08 104.343 822.588 104.16 821.913 104.16C821.319 104.16 820.851 104.303 820.509 104.587C820.175 104.872 820.008 105.263 820.008 105.759H816.48C816.48 104.994 816.716 104.286 817.188 103.635C817.66 102.984 818.328 102.476 819.19 102.109C820.053 101.735 821.021 101.548 822.096 101.548C823.723 101.548 825.013 101.959 825.965 102.781C826.926 103.595 827.406 104.742 827.406 106.223V111.948C827.414 113.201 827.589 114.15 827.931 114.792V115H824.366ZM821.449 112.546C821.97 112.546 822.45 112.432 822.889 112.205C823.329 111.969 823.654 111.655 823.866 111.265V108.994H822.547C820.781 108.994 819.841 109.604 819.728 110.825L819.715 111.033C819.715 111.472 819.87 111.834 820.179 112.119C820.488 112.404 820.912 112.546 821.449 112.546ZM833.363 101.792L833.473 103.318C834.417 102.138 835.682 101.548 837.269 101.548C838.669 101.548 839.71 101.959 840.394 102.781C841.078 103.603 841.428 104.832 841.444 106.467V115H837.916V106.553C837.916 105.804 837.753 105.263 837.428 104.929C837.102 104.587 836.561 104.417 835.804 104.417C834.811 104.417 834.067 104.84 833.57 105.686V115H830.042V101.792H833.363ZM851.783 115C851.62 114.683 851.502 114.288 851.429 113.816C850.575 114.768 849.464 115.244 848.097 115.244C846.803 115.244 845.729 114.87 844.874 114.121C844.028 113.372 843.604 112.428 843.604 111.289C843.604 109.889 844.121 108.815 845.155 108.066C846.196 107.318 847.698 106.939 849.659 106.931H851.283V106.174C851.283 105.564 851.124 105.076 850.807 104.709C850.497 104.343 850.005 104.16 849.33 104.16C848.736 104.16 848.268 104.303 847.926 104.587C847.592 104.872 847.425 105.263 847.425 105.759H843.897C843.897 104.994 844.133 104.286 844.605 103.635C845.077 102.984 845.745 102.476 846.607 102.109C847.47 101.735 848.438 101.548 849.513 101.548C851.14 101.548 852.43 101.959 853.382 102.781C854.343 103.595 854.823 104.742 854.823 106.223V111.948C854.831 113.201 855.006 114.15 855.348 114.792V115H851.783ZM848.866 112.546C849.387 112.546 849.867 112.432 850.306 112.205C850.746 111.969 851.071 111.655 851.283 111.265V108.994H849.964C848.198 108.994 847.258 109.604 847.145 110.825L847.132 111.033C847.132 111.472 847.287 111.834 847.596 112.119C847.905 112.404 848.329 112.546 848.866 112.546ZM864.955 105.1C864.474 105.035 864.051 105.002 863.685 105.002C862.35 105.002 861.476 105.454 861.061 106.357V115H857.533V101.792H860.865L860.963 103.367C861.671 102.154 862.652 101.548 863.905 101.548C864.295 101.548 864.662 101.601 865.003 101.707L864.955 105.1ZM871.815 110.007L874.256 101.792H878.041L872.73 117.051L872.438 117.747C871.648 119.472 870.346 120.334 868.531 120.334C868.019 120.334 867.498 120.257 866.969 120.103V117.429L867.506 117.441C868.173 117.441 868.67 117.34 868.995 117.136C869.329 116.933 869.589 116.595 869.776 116.123L870.191 115.037L865.565 101.792H869.361L871.815 110.007Z" fill="white"/>
<path d="M422.803 209.337C422.803 208.645 422.559 208.116 422.071 207.75C421.583 207.376 420.704 206.985 419.434 206.578C418.165 206.163 417.16 205.756 416.419 205.357C414.401 204.267 413.392 202.798 413.392 200.951C413.392 199.99 413.66 199.136 414.197 198.387C414.743 197.63 415.52 197.04 416.529 196.617C417.546 196.194 418.685 195.982 419.947 195.982C421.216 195.982 422.347 196.214 423.34 196.678C424.333 197.134 425.102 197.781 425.647 198.619C426.201 199.457 426.478 200.41 426.478 201.476H422.815C422.815 200.662 422.559 200.031 422.046 199.583C421.534 199.128 420.813 198.9 419.886 198.9C418.991 198.9 418.295 199.091 417.798 199.474C417.302 199.848 417.054 200.344 417.054 200.963C417.054 201.541 417.343 202.025 417.92 202.416C418.506 202.806 419.365 203.172 420.496 203.514C422.579 204.141 424.097 204.918 425.049 205.846C426.001 206.773 426.478 207.929 426.478 209.312C426.478 210.851 425.896 212.059 424.732 212.938C423.568 213.809 422.002 214.244 420.032 214.244C418.665 214.244 417.42 213.996 416.297 213.5C415.174 212.995 414.315 212.307 413.721 211.437C413.135 210.566 412.842 209.557 412.842 208.409H416.517C416.517 210.37 417.688 211.351 420.032 211.351C420.903 211.351 421.583 211.176 422.071 210.826C422.559 210.468 422.803 209.972 422.803 209.337ZM434.815 214.244C432.878 214.244 431.299 213.65 430.079 212.462C428.866 211.274 428.26 209.691 428.26 207.713V207.372C428.26 206.045 428.516 204.861 429.029 203.819C429.542 202.77 430.266 201.964 431.202 201.402C432.146 200.833 433.22 200.548 434.424 200.548C436.231 200.548 437.651 201.118 438.685 202.257C439.726 203.396 440.247 205.012 440.247 207.103V208.543H431.836C431.95 209.406 432.292 210.098 432.862 210.619C433.44 211.139 434.168 211.4 435.047 211.4C436.406 211.4 437.468 210.908 438.233 209.923L439.966 211.864C439.437 212.612 438.721 213.198 437.818 213.622C436.915 214.037 435.914 214.244 434.815 214.244ZM434.412 203.404C433.712 203.404 433.143 203.64 432.703 204.112C432.272 204.584 431.995 205.26 431.873 206.139H436.78V205.858C436.764 205.077 436.552 204.474 436.146 204.051C435.739 203.62 435.161 203.404 434.412 203.404ZM449.683 204.1C449.203 204.035 448.78 204.002 448.414 204.002C447.079 204.002 446.204 204.454 445.789 205.357V214H442.261V200.792H445.594L445.691 202.367C446.399 201.154 447.38 200.548 448.633 200.548C449.024 200.548 449.39 200.601 449.732 200.707L449.683 204.1ZM456.556 209.691L459.009 200.792H462.696L458.24 214H454.871L450.416 200.792H454.102L456.556 209.691ZM467.981 214H464.441V200.792H467.981V214ZM464.234 197.374C464.234 196.845 464.409 196.41 464.759 196.068C465.117 195.726 465.601 195.555 466.211 195.555C466.814 195.555 467.294 195.726 467.652 196.068C468.01 196.41 468.189 196.845 468.189 197.374C468.189 197.911 468.006 198.351 467.64 198.692C467.282 199.034 466.806 199.205 466.211 199.205C465.617 199.205 465.137 199.034 464.771 198.692C464.413 198.351 464.234 197.911 464.234 197.374ZM476.392 211.4C477.043 211.4 477.572 211.221 477.979 210.863C478.386 210.505 478.597 210.029 478.614 209.435H481.922C481.914 210.33 481.67 211.152 481.189 211.9C480.709 212.641 480.05 213.219 479.212 213.634C478.382 214.041 477.462 214.244 476.453 214.244C474.565 214.244 473.076 213.646 471.985 212.45C470.895 211.245 470.35 209.585 470.35 207.469V207.237C470.35 205.203 470.891 203.579 471.973 202.367C473.056 201.154 474.541 200.548 476.429 200.548C478.081 200.548 479.403 201.02 480.396 201.964C481.397 202.9 481.906 204.149 481.922 205.711H478.614C478.597 205.028 478.386 204.474 477.979 204.051C477.572 203.62 477.035 203.404 476.368 203.404C475.546 203.404 474.923 203.705 474.5 204.308C474.085 204.902 473.877 205.87 473.877 207.213V207.579C473.877 208.938 474.085 209.915 474.5 210.509C474.915 211.103 475.546 211.4 476.392 211.4ZM490.015 214.244C488.078 214.244 486.5 213.65 485.279 212.462C484.066 211.274 483.46 209.691 483.46 207.713V207.372C483.46 206.045 483.716 204.861 484.229 203.819C484.742 202.77 485.466 201.964 486.402 201.402C487.346 200.833 488.42 200.548 489.625 200.548C491.431 200.548 492.851 201.118 493.885 202.257C494.926 203.396 495.447 205.012 495.447 207.103V208.543H487.037C487.151 209.406 487.492 210.098 488.062 210.619C488.64 211.139 489.368 211.4 490.247 211.4C491.606 211.4 492.668 210.908 493.433 209.923L495.167 211.864C494.638 212.612 493.921 213.198 493.018 213.622C492.115 214.037 491.114 214.244 490.015 214.244ZM489.612 203.404C488.912 203.404 488.343 203.64 487.903 204.112C487.472 204.584 487.195 205.26 487.073 206.139H491.98V205.858C491.964 205.077 491.753 204.474 491.346 204.051C490.939 203.62 490.361 203.404 489.612 203.404Z" fill="white"/>
<rect x="719" y="216" width="240" height="168" fill="#A4FB96"/>
<rect x="724" y="273" width="230" height="100" fill="#7367FF"/>
<path d="M782.249 324.738V331H778.587V313.227H785.521C786.855 313.227 788.027 313.471 789.036 313.959C790.053 314.447 790.835 315.143 791.38 316.046C791.925 316.942 792.198 317.963 792.198 319.11C792.198 320.852 791.6 322.227 790.403 323.236C789.215 324.237 787.567 324.738 785.459 324.738H782.249ZM782.249 321.771H785.521C786.489 321.771 787.225 321.544 787.73 321.088C788.243 320.632 788.499 319.981 788.499 319.135C788.499 318.264 788.243 317.56 787.73 317.023C787.217 316.486 786.509 316.209 785.606 316.193H782.249V321.771ZM801.915 321.1C801.434 321.035 801.011 321.002 800.645 321.002C799.31 321.002 798.436 321.454 798.021 322.357V331H794.493V317.792H797.825L797.923 319.367C798.631 318.154 799.611 317.548 800.865 317.548C801.255 317.548 801.622 317.601 801.963 317.707L801.915 321.1ZM802.635 324.274C802.635 322.964 802.887 321.796 803.392 320.771C803.896 319.745 804.62 318.952 805.564 318.39C806.517 317.829 807.619 317.548 808.873 317.548C810.655 317.548 812.107 318.093 813.23 319.184C814.362 320.274 814.992 321.755 815.123 323.627L815.147 324.53C815.147 326.557 814.581 328.184 813.45 329.413C812.319 330.634 810.801 331.244 808.897 331.244C806.993 331.244 805.471 330.634 804.332 329.413C803.2 328.192 802.635 326.532 802.635 324.433V324.274ZM806.163 324.53C806.163 325.784 806.399 326.744 806.871 327.411C807.343 328.07 808.018 328.4 808.897 328.4C809.751 328.4 810.419 328.074 810.899 327.423C811.379 326.764 811.619 325.714 811.619 324.274C811.619 323.045 811.379 322.093 810.899 321.417C810.419 320.742 809.743 320.404 808.873 320.404C808.01 320.404 807.343 320.742 806.871 321.417C806.399 322.085 806.163 323.122 806.163 324.53ZM816.771 324.298C816.771 322.239 817.23 320.6 818.15 319.379C819.078 318.158 820.343 317.548 821.946 317.548C823.232 317.548 824.294 318.028 825.132 318.988V312.25H828.672V331H825.486L825.315 329.596C824.437 330.695 823.305 331.244 821.922 331.244C820.368 331.244 819.118 330.634 818.174 329.413C817.238 328.184 816.771 326.479 816.771 324.298ZM820.298 324.555C820.298 325.792 820.514 326.74 820.945 327.399C821.377 328.058 822.003 328.388 822.825 328.388C823.916 328.388 824.685 327.928 825.132 327.008V321.796C824.693 320.876 823.932 320.417 822.85 320.417C821.149 320.417 820.298 321.796 820.298 324.555ZM839.317 329.657C838.446 330.715 837.242 331.244 835.704 331.244C834.288 331.244 833.205 330.837 832.457 330.023C831.716 329.21 831.338 328.017 831.321 326.447V317.792H834.849V326.325C834.849 327.7 835.476 328.388 836.729 328.388C837.925 328.388 838.747 327.973 839.195 327.143V317.792H842.735V331H839.415L839.317 329.657ZM850.889 328.4C851.54 328.4 852.069 328.221 852.476 327.863C852.883 327.505 853.095 327.029 853.111 326.435H856.419C856.411 327.33 856.167 328.152 855.687 328.9C855.206 329.641 854.547 330.219 853.709 330.634C852.879 331.041 851.959 331.244 850.95 331.244C849.062 331.244 847.573 330.646 846.482 329.45C845.392 328.245 844.847 326.585 844.847 324.469V324.237C844.847 322.203 845.388 320.579 846.47 319.367C847.553 318.154 849.038 317.548 850.926 317.548C852.578 317.548 853.9 318.02 854.893 318.964C855.894 319.9 856.403 321.149 856.419 322.711H853.111C853.095 322.028 852.883 321.474 852.476 321.051C852.069 320.62 851.532 320.404 850.865 320.404C850.043 320.404 849.42 320.705 848.997 321.308C848.582 321.902 848.375 322.87 848.375 324.213V324.579C848.375 325.938 848.582 326.915 848.997 327.509C849.412 328.103 850.043 328.4 850.889 328.4ZM862.657 314.545V317.792H864.915V320.38H862.657V326.972C862.657 327.46 862.75 327.81 862.938 328.021C863.125 328.233 863.483 328.339 864.012 328.339C864.402 328.339 864.748 328.31 865.049 328.253V330.927C864.358 331.138 863.646 331.244 862.913 331.244C860.439 331.244 859.178 329.995 859.129 327.497V320.38H857.2V317.792H859.129V314.545H862.657ZM870.604 331H867.063V317.792H870.604V331ZM866.856 314.374C866.856 313.845 867.031 313.41 867.381 313.068C867.739 312.726 868.223 312.555 868.833 312.555C869.436 312.555 869.916 312.726 870.274 313.068C870.632 313.41 870.811 313.845 870.811 314.374C870.811 314.911 870.628 315.351 870.262 315.692C869.904 316.034 869.428 316.205 868.833 316.205C868.239 316.205 867.759 316.034 867.393 315.692C867.035 315.351 866.856 314.911 866.856 314.374ZM872.972 324.274C872.972 322.964 873.224 321.796 873.729 320.771C874.233 319.745 874.957 318.952 875.901 318.39C876.854 317.829 877.956 317.548 879.209 317.548C880.992 317.548 882.444 318.093 883.567 319.184C884.699 320.274 885.329 321.755 885.459 323.627L885.484 324.53C885.484 326.557 884.918 328.184 883.787 329.413C882.656 330.634 881.138 331.244 879.234 331.244C877.33 331.244 875.808 330.634 874.668 329.413C873.537 328.192 872.972 326.532 872.972 324.433V324.274ZM876.5 324.53C876.5 325.784 876.736 326.744 877.208 327.411C877.68 328.07 878.355 328.4 879.234 328.4C880.088 328.4 880.756 328.074 881.236 327.423C881.716 326.764 881.956 325.714 881.956 324.274C881.956 323.045 881.716 322.093 881.236 321.417C880.756 320.742 880.08 320.404 879.209 320.404C878.347 320.404 877.68 320.742 877.208 321.417C876.736 322.085 876.5 323.122 876.5 324.53ZM890.904 317.792L891.014 319.318C891.958 318.138 893.223 317.548 894.81 317.548C896.21 317.548 897.251 317.959 897.935 318.781C898.619 319.603 898.969 320.832 898.985 322.467V331H895.457V322.553C895.457 321.804 895.294 321.263 894.969 320.929C894.643 320.587 894.102 320.417 893.345 320.417C892.352 320.417 891.608 320.84 891.111 321.686V331H887.583V317.792H890.904Z" fill="white"/>
<path d="M818.299 246.485V254H813.904V232.672H822.225C823.826 232.672 825.232 232.965 826.443 233.551C827.664 234.137 828.602 234.972 829.256 236.056C829.91 237.13 830.237 238.355 830.237 239.732C830.237 241.822 829.52 243.473 828.084 244.684C826.658 245.885 824.681 246.485 822.151 246.485H818.299ZM818.299 242.926H822.225C823.387 242.926 824.271 242.652 824.876 242.105C825.491 241.559 825.799 240.777 825.799 239.762C825.799 238.717 825.491 237.872 824.876 237.228C824.261 236.583 823.411 236.251 822.327 236.231H818.299V242.926ZM832.127 245.929C832.127 244.356 832.43 242.955 833.035 241.725C833.641 240.494 834.51 239.542 835.643 238.868C836.785 238.194 838.108 237.857 839.612 237.857C841.751 237.857 843.494 238.512 844.842 239.82C846.199 241.129 846.956 242.906 847.112 245.152L847.142 246.236C847.142 248.668 846.463 250.621 845.105 252.096C843.748 253.561 841.927 254.293 839.642 254.293C837.356 254.293 835.53 253.561 834.163 252.096C832.806 250.631 832.127 248.639 832.127 246.119V245.929ZM836.36 246.236C836.36 247.74 836.644 248.893 837.21 249.693C837.776 250.484 838.587 250.88 839.642 250.88C840.667 250.88 841.468 250.489 842.044 249.708C842.62 248.917 842.908 247.657 842.908 245.929C842.908 244.454 842.62 243.312 842.044 242.501C841.468 241.69 840.657 241.285 839.612 241.285C838.577 241.285 837.776 241.69 837.21 242.501C836.644 243.302 836.36 244.547 836.36 246.236ZM849.09 245.958C849.09 243.487 849.642 241.52 850.745 240.055C851.858 238.59 853.377 237.857 855.301 237.857C856.844 237.857 858.118 238.434 859.124 239.586V231.5H863.372V254H859.549L859.344 252.315C858.289 253.634 856.932 254.293 855.271 254.293C853.406 254.293 851.907 253.561 850.774 252.096C849.651 250.621 849.09 248.575 849.09 245.958ZM853.323 246.266C853.323 247.75 853.582 248.888 854.1 249.679C854.617 250.47 855.369 250.865 856.355 250.865C857.664 250.865 858.587 250.313 859.124 249.21V242.955C858.597 241.852 857.684 241.3 856.385 241.3C854.344 241.3 853.323 242.955 853.323 246.266Z" fill="black"/>
<path d="M704.493 93.1851C704.595 91.8082 703.562 90.6091 702.185 90.5069L679.747 88.8411C678.37 88.7389 677.171 89.7723 677.069 91.1492C676.966 92.5261 678 93.7252 679.377 93.8274L699.322 95.3081L697.841 115.253C697.739 116.63 698.772 117.829 700.149 117.931C701.526 118.034 702.725 117 702.827 115.623L704.493 93.1851ZM580.632 200.894L703.632 94.8938L700.368 91.1062L577.368 197.106L580.632 200.894Z" fill="black"/>
<path d="M322.706 209.828C323.715 208.886 323.77 207.304 322.828 206.294L307.475 189.845C306.533 188.836 304.951 188.782 303.942 189.724C302.933 190.666 302.878 192.248 303.82 193.257L317.467 207.878L302.845 221.525C301.836 222.467 301.782 224.049 302.724 225.058C303.666 226.067 305.248 226.122 306.257 225.18L322.706 209.828ZM233.914 207.499L320.914 210.499L321.086 205.501L234.086 202.501L233.914 207.499Z" fill="black"/>
<path d="M702.22 310.49C703.596 310.369 704.612 309.155 704.49 307.78L702.507 285.367C702.385 283.992 701.172 282.976 699.796 283.097C698.421 283.219 697.405 284.433 697.526 285.808L699.289 305.73L679.367 307.493C677.992 307.615 676.976 308.828 677.097 310.204C677.219 311.579 678.433 312.595 679.808 312.474L702.22 310.49ZM577.395 206.917L700.395 309.917L703.605 306.083L580.605 203.083L577.395 206.917Z" fill="black"/>
<path d="M85.3333 189.773H79.1467C70.704 189.468 62.2888 190.901 54.4232 193.984C46.5575 197.067 39.4093 201.733 33.4222 207.693L31.7156 209.684V268.564H60.7289V235.142L64.64 230.733L66.4178 228.671C75.6759 219.16 87.202 212.161 99.9111 208.333C93.5481 203.491 88.5297 197.102 85.3333 189.773V189.773Z" fill="#2396ED"/>
<path d="M222.862 207.48C216.875 201.519 209.727 196.853 201.861 193.771C193.996 190.688 185.58 189.255 177.138 189.56C174.548 189.567 171.961 189.71 169.387 189.986C166.13 196.862 161.249 202.842 155.164 207.409C168.732 211.162 181.023 218.537 190.72 228.742L192.498 230.733L196.338 235.142V268.635H224.356V209.471L222.862 207.48Z" fill="#2396ED"/>
<path d="M78.9333 175.907H81.1378C80.1135 167.112 81.6567 158.209 85.581 150.272C89.5053 142.335 95.6431 135.704 103.253 131.178C100.495 126.964 96.6888 123.538 92.2084 121.236C87.728 118.935 82.7266 117.836 77.6941 118.048C72.6616 118.26 67.7704 119.776 63.4995 122.446C59.2286 125.117 55.7245 128.85 53.3302 133.282C50.9359 137.713 49.7335 142.691 49.8408 147.727C49.9482 152.763 51.3615 157.684 53.9424 162.01C56.5234 166.335 60.1834 169.916 64.5642 172.402C68.945 174.888 73.8963 176.194 78.9333 176.191V175.907Z" fill="#2396ED"/>
<path d="M173.724 170.573C173.811 172.208 173.811 173.846 173.724 175.48C175.089 175.696 176.467 175.815 177.849 175.836H179.2C184.215 175.568 189.075 174.007 193.307 171.304C197.54 168.6 201 164.847 203.351 160.41C205.702 155.972 206.865 151.001 206.725 145.981C206.584 140.961 205.147 136.063 202.552 131.763C199.957 127.464 196.293 123.91 191.916 121.447C187.54 118.983 182.6 117.695 177.578 117.708C172.556 117.721 167.623 119.034 163.259 121.519C158.895 124.004 155.249 127.576 152.676 131.889C159.112 136.091 164.404 141.825 168.078 148.577C171.752 155.329 173.692 162.887 173.724 170.573V170.573Z" fill="#2396ED"/>
<path d="M127.076 202.431C144.631 202.431 158.862 188.2 158.862 170.645C158.862 153.089 144.631 138.858 127.076 138.858C109.52 138.858 95.2889 153.089 95.2889 170.645C95.2889 188.2 109.52 202.431 127.076 202.431Z" fill="#2396ED"/>
<path d="M128.782 219.356C119.495 218.981 110.229 220.488 101.54 223.788C92.8509 227.088 84.9193 232.111 78.2222 238.556L76.4444 240.547V285.56C76.4722 287.026 76.7885 288.473 77.3754 289.817C77.9622 291.161 78.8081 292.376 79.8647 293.393C80.9213 294.41 82.1679 295.209 83.5332 295.744C84.8986 296.279 86.356 296.54 87.8222 296.511H169.529C170.995 296.54 172.453 296.279 173.818 295.744C175.183 295.209 176.43 294.41 177.486 293.393C178.543 292.376 179.389 291.161 179.976 289.817C180.563 288.473 180.879 287.026 180.907 285.56V240.689L179.2 238.556C172.546 232.091 164.642 227.054 155.973 223.752C147.303 220.451 138.051 218.955 128.782 219.356V219.356Z" fill="#2396ED"/>
</svg>
