<svg width="954" height="315" viewBox="0 0 954 315" fill="none" xmlns="http://www.w3.org/2000/svg">
<rect x="724" width="230" height="100" fill="#7367FF"/>
<rect x="338" y="112" width="230" height="100" fill="#E96969"/>
<path d="M814.54 51.0796C814.401 52.992 813.693 54.4976 812.416 55.5962C811.146 56.6948 809.47 57.2441 807.386 57.2441C805.108 57.2441 803.313 56.4792 802.003 54.9492C800.701 53.4111 800.05 51.3034 800.05 48.626V47.5396C800.05 45.8306 800.351 44.325 800.953 43.0229C801.555 41.7209 802.414 40.724 803.529 40.0322C804.652 39.3324 805.954 38.9824 807.435 38.9824C809.486 38.9824 811.138 39.5317 812.391 40.6304C813.644 41.729 814.369 43.2712 814.564 45.2568H810.902C810.812 44.1094 810.491 43.2793 809.938 42.7666C809.392 42.2458 808.558 41.9854 807.435 41.9854C806.214 41.9854 805.299 42.4248 804.688 43.3037C804.086 44.1745 803.777 45.5295 803.761 47.3687V48.7114C803.761 50.632 804.05 52.0358 804.627 52.9229C805.213 53.8099 806.133 54.2534 807.386 54.2534C808.517 54.2534 809.36 53.9971 809.913 53.4844C810.475 52.9635 810.796 52.1619 810.877 51.0796H814.54ZM824.366 57C824.203 56.6826 824.085 56.2879 824.012 55.8159C823.158 56.7681 822.047 57.2441 820.68 57.2441C819.386 57.2441 818.312 56.8698 817.457 56.1211C816.611 55.3724 816.188 54.4284 816.188 53.2891C816.188 51.8893 816.704 50.8151 817.738 50.0664C818.779 49.3177 820.281 48.9393 822.242 48.9312H823.866V48.1743C823.866 47.564 823.707 47.0757 823.39 46.7095C823.08 46.3433 822.588 46.1602 821.913 46.1602C821.319 46.1602 820.851 46.3026 820.509 46.5874C820.175 46.8722 820.008 47.2629 820.008 47.7593H816.48C816.48 46.9943 816.716 46.2863 817.188 45.6353C817.66 44.9842 818.328 44.4756 819.19 44.1094C820.053 43.735 821.021 43.5479 822.096 43.5479C823.723 43.5479 825.013 43.9588 825.965 44.7808C826.926 45.5946 827.406 46.742 827.406 48.2231V53.9482C827.414 55.2015 827.589 56.1496 827.931 56.7925V57H824.366ZM821.449 54.5464C821.97 54.5464 822.45 54.4325 822.889 54.2046C823.329 53.9686 823.654 53.6553 823.866 53.2646V50.9941H822.547C820.781 50.9941 819.841 51.6045 819.728 52.8252L819.715 53.0327C819.715 53.4722 819.87 53.8343 820.179 54.1191C820.488 54.404 820.912 54.5464 821.449 54.5464ZM833.363 43.792L833.473 45.3179C834.417 44.1379 835.682 43.5479 837.269 43.5479C838.669 43.5479 839.71 43.9588 840.394 44.7808C841.078 45.6027 841.428 46.8315 841.444 48.4673V57H837.916V48.5527C837.916 47.804 837.753 47.2629 837.428 46.9292C837.102 46.5874 836.561 46.4165 835.804 46.4165C834.811 46.4165 834.067 46.8397 833.57 47.686V57H830.042V43.792H833.363ZM851.783 57C851.62 56.6826 851.502 56.2879 851.429 55.8159C850.575 56.7681 849.464 57.2441 848.097 57.2441C846.803 57.2441 845.729 56.8698 844.874 56.1211C844.028 55.3724 843.604 54.4284 843.604 53.2891C843.604 51.8893 844.121 50.8151 845.155 50.0664C846.196 49.3177 847.698 48.9393 849.659 48.9312H851.283V48.1743C851.283 47.564 851.124 47.0757 850.807 46.7095C850.497 46.3433 850.005 46.1602 849.33 46.1602C848.736 46.1602 848.268 46.3026 847.926 46.5874C847.592 46.8722 847.425 47.2629 847.425 47.7593H843.897C843.897 46.9943 844.133 46.2863 844.605 45.6353C845.077 44.9842 845.745 44.4756 846.607 44.1094C847.47 43.735 848.438 43.5479 849.513 43.5479C851.14 43.5479 852.43 43.9588 853.382 44.7808C854.343 45.5946 854.823 46.742 854.823 48.2231V53.9482C854.831 55.2015 855.006 56.1496 855.348 56.7925V57H851.783ZM848.866 54.5464C849.387 54.5464 849.867 54.4325 850.306 54.2046C850.746 53.9686 851.071 53.6553 851.283 53.2646V50.9941H849.964C848.198 50.9941 847.258 51.6045 847.145 52.8252L847.132 53.0327C847.132 53.4722 847.287 53.8343 847.596 54.1191C847.905 54.404 848.329 54.5464 848.866 54.5464ZM864.955 47.1001C864.474 47.035 864.051 47.0024 863.685 47.0024C862.35 47.0024 861.476 47.4541 861.061 48.3574V57H857.533V43.792H860.865L860.963 45.3667C861.671 44.1541 862.652 43.5479 863.905 43.5479C864.295 43.5479 864.662 43.6007 865.003 43.7065L864.955 47.1001ZM871.815 52.0073L874.256 43.792H878.041L872.73 59.0508L872.438 59.7466C871.648 61.4718 870.346 62.3345 868.531 62.3345C868.019 62.3345 867.498 62.2572 866.969 62.1025V59.4292L867.506 59.4414C868.173 59.4414 868.67 59.3397 868.995 59.1362C869.329 58.9328 869.589 58.5951 869.776 58.123L870.191 57.0366L865.565 43.792H869.361L871.815 52.0073Z" fill="white"/>
<path d="M422.803 166.337C422.803 165.645 422.559 165.116 422.071 164.75C421.583 164.376 420.704 163.985 419.434 163.578C418.165 163.163 417.16 162.756 416.419 162.357C414.401 161.267 413.392 159.798 413.392 157.951C413.392 156.99 413.66 156.136 414.197 155.387C414.743 154.63 415.52 154.04 416.529 153.617C417.546 153.194 418.685 152.982 419.947 152.982C421.216 152.982 422.347 153.214 423.34 153.678C424.333 154.134 425.102 154.781 425.647 155.619C426.201 156.457 426.478 157.41 426.478 158.476H422.815C422.815 157.662 422.559 157.031 422.046 156.583C421.534 156.128 420.813 155.9 419.886 155.9C418.991 155.9 418.295 156.091 417.798 156.474C417.302 156.848 417.054 157.344 417.054 157.963C417.054 158.541 417.343 159.025 417.92 159.416C418.506 159.806 419.365 160.172 420.496 160.514C422.579 161.141 424.097 161.918 425.049 162.846C426.001 163.773 426.478 164.929 426.478 166.312C426.478 167.851 425.896 169.059 424.732 169.938C423.568 170.809 422.002 171.244 420.032 171.244C418.665 171.244 417.42 170.996 416.297 170.5C415.174 169.995 414.315 169.307 413.721 168.437C413.135 167.566 412.842 166.557 412.842 165.409H416.517C416.517 167.37 417.688 168.351 420.032 168.351C420.903 168.351 421.583 168.176 422.071 167.826C422.559 167.468 422.803 166.972 422.803 166.337ZM434.815 171.244C432.878 171.244 431.299 170.65 430.079 169.462C428.866 168.274 428.26 166.691 428.26 164.713V164.372C428.26 163.045 428.516 161.861 429.029 160.819C429.542 159.77 430.266 158.964 431.202 158.402C432.146 157.833 433.22 157.548 434.424 157.548C436.231 157.548 437.651 158.118 438.685 159.257C439.726 160.396 440.247 162.012 440.247 164.103V165.543H431.836C431.95 166.406 432.292 167.098 432.862 167.619C433.44 168.139 434.168 168.4 435.047 168.4C436.406 168.4 437.468 167.908 438.233 166.923L439.966 168.864C439.437 169.612 438.721 170.198 437.818 170.622C436.915 171.037 435.914 171.244 434.815 171.244ZM434.412 160.404C433.712 160.404 433.143 160.64 432.703 161.112C432.272 161.584 431.995 162.26 431.873 163.139H436.78V162.858C436.764 162.077 436.552 161.474 436.146 161.051C435.739 160.62 435.161 160.404 434.412 160.404ZM449.683 161.1C449.203 161.035 448.78 161.002 448.414 161.002C447.079 161.002 446.204 161.454 445.789 162.357V171H442.261V157.792H445.594L445.691 159.367C446.399 158.154 447.38 157.548 448.633 157.548C449.024 157.548 449.39 157.601 449.732 157.707L449.683 161.1ZM456.556 166.691L459.009 157.792H462.696L458.24 171H454.871L450.416 157.792H454.102L456.556 166.691ZM467.981 171H464.441V157.792H467.981V171ZM464.234 154.374C464.234 153.845 464.409 153.41 464.759 153.068C465.117 152.726 465.601 152.555 466.211 152.555C466.814 152.555 467.294 152.726 467.652 153.068C468.01 153.41 468.189 153.845 468.189 154.374C468.189 154.911 468.006 155.351 467.64 155.692C467.282 156.034 466.806 156.205 466.211 156.205C465.617 156.205 465.137 156.034 464.771 155.692C464.413 155.351 464.234 154.911 464.234 154.374ZM476.392 168.4C477.043 168.4 477.572 168.221 477.979 167.863C478.386 167.505 478.597 167.029 478.614 166.435H481.922C481.914 167.33 481.67 168.152 481.189 168.9C480.709 169.641 480.05 170.219 479.212 170.634C478.382 171.041 477.462 171.244 476.453 171.244C474.565 171.244 473.076 170.646 471.985 169.45C470.895 168.245 470.35 166.585 470.35 164.469V164.237C470.35 162.203 470.891 160.579 471.973 159.367C473.056 158.154 474.541 157.548 476.429 157.548C478.081 157.548 479.403 158.02 480.396 158.964C481.397 159.9 481.906 161.149 481.922 162.711H478.614C478.597 162.028 478.386 161.474 477.979 161.051C477.572 160.62 477.035 160.404 476.368 160.404C475.546 160.404 474.923 160.705 474.5 161.308C474.085 161.902 473.877 162.87 473.877 164.213V164.579C473.877 165.938 474.085 166.915 474.5 167.509C474.915 168.103 475.546 168.4 476.392 168.4ZM490.015 171.244C488.078 171.244 486.5 170.65 485.279 169.462C484.066 168.274 483.46 166.691 483.46 164.713V164.372C483.46 163.045 483.716 161.861 484.229 160.819C484.742 159.77 485.466 158.964 486.402 158.402C487.346 157.833 488.42 157.548 489.625 157.548C491.431 157.548 492.851 158.118 493.885 159.257C494.926 160.396 495.447 162.012 495.447 164.103V165.543H487.037C487.151 166.406 487.492 167.098 488.062 167.619C488.64 168.139 489.368 168.4 490.247 168.4C491.606 168.4 492.668 167.908 493.433 166.923L495.167 168.864C494.638 169.612 493.921 170.198 493.018 170.622C492.115 171.037 491.114 171.244 490.015 171.244ZM489.612 160.404C488.912 160.404 488.343 160.64 487.903 161.112C487.472 161.584 487.195 162.26 487.073 163.139H491.98V162.858C491.964 162.077 491.753 161.474 491.346 161.051C490.939 160.62 490.361 160.404 489.612 160.404Z" fill="white"/>
<rect x="724" y="215" width="230" height="100" fill="#7367FF"/>
<path d="M782.249 266.738V273H778.587V255.227H785.521C786.855 255.227 788.027 255.471 789.036 255.959C790.053 256.447 790.835 257.143 791.38 258.046C791.925 258.942 792.198 259.963 792.198 261.11C792.198 262.852 791.6 264.227 790.403 265.236C789.215 266.237 787.567 266.738 785.459 266.738H782.249ZM782.249 263.771H785.521C786.489 263.771 787.225 263.544 787.73 263.088C788.243 262.632 788.499 261.981 788.499 261.135C788.499 260.264 788.243 259.56 787.73 259.023C787.217 258.486 786.509 258.209 785.606 258.193H782.249V263.771ZM801.915 263.1C801.434 263.035 801.011 263.002 800.645 263.002C799.31 263.002 798.436 263.454 798.021 264.357V273H794.493V259.792H797.825L797.923 261.367C798.631 260.154 799.611 259.548 800.865 259.548C801.255 259.548 801.622 259.601 801.963 259.707L801.915 263.1ZM802.635 266.274C802.635 264.964 802.887 263.796 803.392 262.771C803.896 261.745 804.62 260.952 805.564 260.39C806.517 259.829 807.619 259.548 808.873 259.548C810.655 259.548 812.107 260.093 813.23 261.184C814.362 262.274 814.992 263.755 815.123 265.627L815.147 266.53C815.147 268.557 814.581 270.184 813.45 271.413C812.319 272.634 810.801 273.244 808.897 273.244C806.993 273.244 805.471 272.634 804.332 271.413C803.2 270.192 802.635 268.532 802.635 266.433V266.274ZM806.163 266.53C806.163 267.784 806.399 268.744 806.871 269.411C807.343 270.07 808.018 270.4 808.897 270.4C809.751 270.4 810.419 270.074 810.899 269.423C811.379 268.764 811.619 267.714 811.619 266.274C811.619 265.045 811.379 264.093 810.899 263.417C810.419 262.742 809.743 262.404 808.873 262.404C808.01 262.404 807.343 262.742 806.871 263.417C806.399 264.085 806.163 265.122 806.163 266.53ZM816.771 266.298C816.771 264.239 817.23 262.6 818.15 261.379C819.078 260.158 820.343 259.548 821.946 259.548C823.232 259.548 824.294 260.028 825.132 260.988V254.25H828.672V273H825.486L825.315 271.596C824.437 272.695 823.305 273.244 821.922 273.244C820.368 273.244 819.118 272.634 818.174 271.413C817.238 270.184 816.771 268.479 816.771 266.298ZM820.298 266.555C820.298 267.792 820.514 268.74 820.945 269.399C821.377 270.058 822.003 270.388 822.825 270.388C823.916 270.388 824.685 269.928 825.132 269.008V263.796C824.693 262.876 823.932 262.417 822.85 262.417C821.149 262.417 820.298 263.796 820.298 266.555ZM839.317 271.657C838.446 272.715 837.242 273.244 835.704 273.244C834.288 273.244 833.205 272.837 832.457 272.023C831.716 271.21 831.338 270.017 831.321 268.447V259.792H834.849V268.325C834.849 269.7 835.476 270.388 836.729 270.388C837.925 270.388 838.747 269.973 839.195 269.143V259.792H842.735V273H839.415L839.317 271.657ZM850.889 270.4C851.54 270.4 852.069 270.221 852.476 269.863C852.883 269.505 853.095 269.029 853.111 268.435H856.419C856.411 269.33 856.167 270.152 855.687 270.9C855.206 271.641 854.547 272.219 853.709 272.634C852.879 273.041 851.959 273.244 850.95 273.244C849.062 273.244 847.573 272.646 846.482 271.45C845.392 270.245 844.847 268.585 844.847 266.469V266.237C844.847 264.203 845.388 262.579 846.47 261.367C847.553 260.154 849.038 259.548 850.926 259.548C852.578 259.548 853.9 260.02 854.893 260.964C855.894 261.9 856.403 263.149 856.419 264.711H853.111C853.095 264.028 852.883 263.474 852.476 263.051C852.069 262.62 851.532 262.404 850.865 262.404C850.043 262.404 849.42 262.705 848.997 263.308C848.582 263.902 848.375 264.87 848.375 266.213V266.579C848.375 267.938 848.582 268.915 848.997 269.509C849.412 270.103 850.043 270.4 850.889 270.4ZM862.657 256.545V259.792H864.915V262.38H862.657V268.972C862.657 269.46 862.75 269.81 862.938 270.021C863.125 270.233 863.483 270.339 864.012 270.339C864.402 270.339 864.748 270.31 865.049 270.253V272.927C864.358 273.138 863.646 273.244 862.913 273.244C860.439 273.244 859.178 271.995 859.129 269.497V262.38H857.2V259.792H859.129V256.545H862.657ZM870.604 273H867.063V259.792H870.604V273ZM866.856 256.374C866.856 255.845 867.031 255.41 867.381 255.068C867.739 254.726 868.223 254.555 868.833 254.555C869.436 254.555 869.916 254.726 870.274 255.068C870.632 255.41 870.811 255.845 870.811 256.374C870.811 256.911 870.628 257.351 870.262 257.692C869.904 258.034 869.428 258.205 868.833 258.205C868.239 258.205 867.759 258.034 867.393 257.692C867.035 257.351 866.856 256.911 866.856 256.374ZM872.972 266.274C872.972 264.964 873.224 263.796 873.729 262.771C874.233 261.745 874.957 260.952 875.901 260.39C876.854 259.829 877.956 259.548 879.209 259.548C880.992 259.548 882.444 260.093 883.567 261.184C884.699 262.274 885.329 263.755 885.459 265.627L885.484 266.53C885.484 268.557 884.918 270.184 883.787 271.413C882.656 272.634 881.138 273.244 879.234 273.244C877.33 273.244 875.808 272.634 874.668 271.413C873.537 270.192 872.972 268.532 872.972 266.433V266.274ZM876.5 266.53C876.5 267.784 876.736 268.744 877.208 269.411C877.68 270.07 878.355 270.4 879.234 270.4C880.088 270.4 880.756 270.074 881.236 269.423C881.716 268.764 881.956 267.714 881.956 266.274C881.956 265.045 881.716 264.093 881.236 263.417C880.756 262.742 880.08 262.404 879.209 262.404C878.347 262.404 877.68 262.742 877.208 263.417C876.736 264.085 876.5 265.122 876.5 266.53ZM890.904 259.792L891.014 261.318C891.958 260.138 893.223 259.548 894.81 259.548C896.21 259.548 897.251 259.959 897.935 260.781C898.619 261.603 898.969 262.832 898.985 264.467V273H895.457V264.553C895.457 263.804 895.294 263.263 894.969 262.929C894.643 262.587 894.102 262.417 893.345 262.417C892.352 262.417 891.608 262.84 891.111 263.686V273H887.583V259.792H890.904Z" fill="white"/>
<path d="M704.493 50.1851C704.595 48.8082 703.562 47.6091 702.185 47.5069L679.747 45.8411C678.37 45.7389 677.171 46.7723 677.069 48.1492C676.966 49.5261 678 50.7252 679.377 50.8274L699.322 52.3081L697.841 72.2532C697.739 73.6301 698.772 74.8292 700.149 74.9314C701.526 75.0336 702.725 74.0003 702.827 72.6233L704.493 50.1851ZM580.632 157.894L703.632 51.8938L700.368 48.1062L577.368 154.106L580.632 157.894Z" fill="black"/>
<path d="M322.706 166.828C323.715 165.886 323.77 164.304 322.828 163.294L307.475 146.845C306.533 145.836 304.951 145.782 303.942 146.724C302.933 147.666 302.878 149.248 303.82 150.257L317.467 164.878L302.845 178.525C301.836 179.467 301.782 181.049 302.724 182.058C303.666 183.067 305.248 183.122 306.257 182.18L322.706 166.828ZM233.914 164.499L320.914 167.499L321.086 162.501L234.086 159.501L233.914 164.499Z" fill="black"/>
<path d="M702.22 267.49C703.596 267.369 704.612 266.155 704.49 264.78L702.507 242.367C702.385 240.992 701.172 239.976 699.796 240.097C698.421 240.219 697.405 241.433 697.526 242.808L699.289 262.73L679.367 264.493C677.992 264.615 676.976 265.828 677.097 267.204C677.219 268.579 678.433 269.595 679.808 269.474L702.22 267.49ZM577.395 163.917L700.395 266.917L703.605 263.083L580.605 160.083L577.395 163.917Z" fill="black"/>
<path d="M85.3333 146.773H79.1467C70.704 146.468 62.2888 147.901 54.4232 150.984C46.5575 154.067 39.4093 158.733 33.4222 164.693L31.7156 166.684V225.564H60.7289V192.142L64.64 187.733L66.4178 185.671C75.6759 176.16 87.202 169.161 99.9111 165.333C93.5481 160.491 88.5297 154.102 85.3333 146.773Z" fill="#2396ED"/>
<path d="M222.862 164.48C216.875 158.519 209.727 153.853 201.861 150.771C193.996 147.688 185.58 146.255 177.138 146.56C174.548 146.567 171.961 146.71 169.387 146.986C166.13 153.862 161.249 159.842 155.164 164.409C168.732 168.162 181.023 175.537 190.72 185.742L192.498 187.733L196.338 192.142V225.635H224.356V166.471L222.862 164.48Z" fill="#2396ED"/>
<path d="M78.9333 132.907H81.1378C80.1135 124.112 81.6567 115.209 85.581 107.272C89.5053 99.335 95.6431 92.7035 103.253 88.178C100.495 83.9636 96.6888 80.5379 92.2084 78.2363C87.728 75.9347 82.7266 74.8362 77.6941 75.0483C72.6616 75.2603 67.7704 76.7758 63.4995 79.4461C59.2286 82.1165 55.7245 85.8503 53.3302 90.2818C50.9359 94.7134 49.7335 99.6908 49.8408 104.727C49.9482 109.763 51.3615 114.684 53.9424 119.01C56.5234 123.335 60.1834 126.916 64.5642 129.402C68.945 131.888 73.8963 133.194 78.9333 133.191V132.907Z" fill="#2396ED"/>
<path d="M173.724 127.573C173.811 129.208 173.811 130.846 173.724 132.48C175.089 132.696 176.467 132.815 177.849 132.836H179.2C184.215 132.568 189.075 131.007 193.307 128.304C197.54 125.6 201 121.847 203.351 117.41C205.702 112.972 206.865 108.001 206.725 102.981C206.584 97.9613 205.147 93.063 202.552 88.7635C199.957 84.464 196.293 80.9096 191.916 78.4465C187.54 75.9834 182.6 74.6955 177.578 74.7081C172.556 74.7207 167.623 76.0335 163.259 78.5186C158.895 81.0037 155.249 84.5764 152.676 88.889C159.112 93.0912 164.404 98.8254 168.078 105.577C171.752 112.329 173.692 119.887 173.724 127.573Z" fill="#2396ED"/>
<path d="M127.076 159.431C144.631 159.431 158.862 145.2 158.862 127.645C158.862 110.089 144.631 95.8579 127.076 95.8579C109.52 95.8579 95.2889 110.089 95.2889 127.645C95.2889 145.2 109.52 159.431 127.076 159.431Z" fill="#2396ED"/>
<path d="M128.782 176.356C119.495 175.981 110.229 177.488 101.54 180.788C92.8509 184.088 84.9193 189.111 78.2222 195.556L76.4444 197.547V242.56C76.4722 244.026 76.7885 245.473 77.3754 246.817C77.9622 248.161 78.8081 249.376 79.8647 250.393C80.9213 251.41 82.1679 252.209 83.5332 252.744C84.8986 253.279 86.356 253.54 87.8222 253.511H169.529C170.995 253.54 172.453 253.279 173.818 252.744C175.183 252.209 176.43 251.41 177.486 250.393C178.543 249.376 179.389 248.161 179.976 246.817C180.563 245.473 180.879 244.026 180.907 242.56V197.689L179.2 195.556C172.546 189.091 164.642 184.054 155.973 180.752C147.303 177.451 138.051 175.955 128.782 176.356Z" fill="#2396ED"/>
</svg>
